<svg width="77" height="79" viewBox="0 0 77 79" fill="none" xmlns="http://www.w3.org/2000/svg">
<path d="M3.92419 77V67.228H6.05219V75.11H9.77619V77H3.92419ZM17.7227 77C17.3494 77 17.0367 76.8833 16.7847 76.65C16.542 76.4167 16.388 76.104 16.3227 75.712H16.2387C16.1267 76.188 15.8794 76.552 15.4967 76.804C15.114 77.0467 14.6427 77.168 14.0827 77.168C13.3454 77.168 12.7807 76.972 12.3887 76.58C11.9967 76.188 11.8007 75.67 11.8007 75.026C11.8007 74.2513 12.0807 73.6773 12.6407 73.304C13.21 72.9213 13.98 72.73 14.9507 72.73H16.1127V72.268C16.1127 71.9133 16.0194 71.6333 15.8327 71.428C15.646 71.2133 15.3334 71.106 14.8947 71.106C14.484 71.106 14.1574 71.1947 13.9147 71.372C13.672 71.5493 13.4714 71.75 13.3127 71.974L12.0807 70.882C12.3794 70.4433 12.7527 70.1027 13.2007 69.86C13.658 69.608 14.274 69.482 15.0487 69.482C16.094 69.482 16.878 69.7107 17.4007 70.168C17.9234 70.6253 18.1847 71.2927 18.1847 72.17V75.39H18.8707V77H17.7227ZM14.8527 75.726C15.198 75.726 15.492 75.6513 15.7347 75.502C15.9867 75.3527 16.1127 75.11 16.1127 74.774V73.906H15.1047C14.2927 73.906 13.8867 74.1813 13.8867 74.732V74.942C13.8867 75.2127 13.9707 75.4133 14.1387 75.544C14.3067 75.6653 14.5447 75.726 14.8527 75.726ZM21.2614 77V69.65H23.3334V70.896H23.4174C23.5481 70.5133 23.7767 70.182 24.1034 69.902C24.4301 69.622 24.8827 69.482 25.4614 69.482C26.2174 69.482 26.7867 69.734 27.1694 70.238C27.5614 70.742 27.7574 71.4607 27.7574 72.394V77H25.6854V72.562C25.6854 72.086 25.6107 71.736 25.4614 71.512C25.3121 71.2787 25.0461 71.162 24.6634 71.162C24.4954 71.162 24.3321 71.1853 24.1734 71.232C24.0147 71.2693 23.8701 71.3347 23.7394 71.428C23.6181 71.5213 23.5201 71.638 23.4454 71.778C23.3707 71.9087 23.3334 72.0627 23.3334 72.24V77H21.2614ZM37.6678 77L35.7148 74.893C35.5002 74.6597 35.3298 74.4567 35.2038 74.284C35.0778 74.1067 34.9868 73.9363 34.9308 73.773C34.8748 73.6097 34.8468 73.4323 34.8468 73.241C34.8468 72.9517 34.9098 72.702 35.0358 72.492C35.1618 72.282 35.3555 72.1187 35.6168 72.002C35.8828 71.8807 36.2258 71.82 36.6458 71.82C36.8185 71.82 36.9935 71.8293 37.1708 71.848C37.3528 71.862 37.5115 71.8807 37.6468 71.904V72.828C37.5535 72.814 37.4392 72.8 37.3038 72.786C37.1685 72.772 37.0332 72.7627 36.8978 72.758C36.7672 72.7487 36.6598 72.744 36.5758 72.744C36.3005 72.744 36.1162 72.793 36.0228 72.891C35.9295 72.989 35.8828 73.1243 35.8828 73.297C35.8828 73.4557 35.9202 73.6097 35.9948 73.759C36.0742 73.9037 36.2025 74.0717 36.3798 74.263L38.9068 77H37.6678ZM35.9948 77.147C35.6168 77.147 35.2855 77.0747 35.0008 76.93C34.7208 76.7807 34.5015 76.58 34.3428 76.328C34.1842 76.0713 34.1048 75.7867 34.1048 75.474V75.376C34.1048 75.0353 34.2005 74.732 34.3918 74.466C34.5832 74.2 34.8305 73.9993 35.1338 73.864L35.5888 74.452C35.4628 74.536 35.3555 74.6573 35.2668 74.816C35.1828 74.97 35.1408 75.152 35.1408 75.362C35.1408 75.5253 35.1735 75.6747 35.2388 75.81C35.3088 75.9407 35.4115 76.0433 35.5468 76.118C35.6822 76.188 35.8525 76.223 36.0578 76.223C36.3285 76.223 36.5758 76.1507 36.7998 76.006C37.0285 75.8613 37.2105 75.6327 37.3458 75.32C37.4858 75.0073 37.5558 74.599 37.5558 74.095H38.5358C38.5358 74.5897 38.4682 75.026 38.3328 75.404C38.2022 75.782 38.0178 76.1017 37.7798 76.363C37.5465 76.6197 37.2758 76.8157 36.9678 76.951C36.6598 77.0817 36.3355 77.147 35.9948 77.147ZM36.8978 74.242V73.423H38.8858V74.242H36.8978ZM52.7586 70.588H52.7166L52.0026 72.016L50.0986 75.474L48.2366 72.03L47.4946 70.49H47.4526V77H45.4506V67.228H47.7046L50.0986 71.806H50.1266L52.4926 67.228H54.7606V77H52.7586V70.588ZM63.2413 77C62.8679 77 62.5553 76.8833 62.3033 76.65C62.0606 76.4167 61.9066 76.104 61.8413 75.712H61.7573C61.6453 76.188 61.3979 76.552 61.0153 76.804C60.6326 77.0467 60.1613 77.168 59.6013 77.168C58.8639 77.168 58.2993 76.972 57.9073 76.58C57.5153 76.188 57.3193 75.67 57.3193 75.026C57.3193 74.2513 57.5993 73.6773 58.1593 73.304C58.7286 72.9213 59.4986 72.73 60.4693 72.73H61.6313V72.268C61.6313 71.9133 61.5379 71.6333 61.3513 71.428C61.1646 71.2133 60.8519 71.106 60.4133 71.106C60.0026 71.106 59.6759 71.1947 59.4333 71.372C59.1906 71.5493 58.9899 71.75 58.8313 71.974L57.5993 70.882C57.8979 70.4433 58.2713 70.1027 58.7193 69.86C59.1766 69.608 59.7926 69.482 60.5673 69.482C61.6126 69.482 62.3966 69.7107 62.9193 70.168C63.4419 70.6253 63.7033 71.2927 63.7033 72.17V75.39H64.3893V77H63.2413ZM60.3713 75.726C60.7166 75.726 61.0106 75.6513 61.2533 75.502C61.5053 75.3527 61.6313 75.11 61.6313 74.774V73.906H60.6233C59.8113 73.906 59.4053 74.1813 59.4053 74.732V74.942C59.4053 75.2127 59.4893 75.4133 59.6573 75.544C59.8253 75.6653 60.0633 75.726 60.3713 75.726ZM66.78 77V69.65H68.852V70.896H68.936C69.0666 70.5133 69.2953 70.182 69.622 69.902C69.9486 69.622 70.4013 69.482 70.98 69.482C71.736 69.482 72.3053 69.734 72.688 70.238C73.08 70.742 73.276 71.4607 73.276 72.394V77H71.204V72.562C71.204 72.086 71.1293 71.736 70.98 71.512C70.8306 71.2787 70.5646 71.162 70.182 71.162C70.014 71.162 69.8506 71.1853 69.692 71.232C69.5333 71.2693 69.3886 71.3347 69.258 71.428C69.1366 71.5213 69.0386 71.638 68.964 71.778C68.8893 71.9087 68.852 72.0627 68.852 72.24V77H66.78Z" fill="#EEEEEE"/>
<path d="M44.0026 37.749C44.0026 40.7882 41.5388 43.252 38.4995 43.252C35.4603 43.252 32.9965 40.7882 32.9965 37.749C32.9965 34.7097 35.4603 32.2459 38.4995 32.2459C41.5388 32.2459 44.0026 34.7097 44.0026 37.749Z" fill="#D9706A"/>
<path d="M49.0233 13.2575L38.5466 26.8395L28.1697 13.2575C28.1697 -4.31916 49.0233 -4.51889 49.0233 13.2575Z" fill="#D9706A"/>
<path d="M43.0658 47.1139C39.4495 48.41 37.3401 48.3103 33.7238 47.1139L29.9067 55.4891C35.1301 61.6708 41.2577 61.4713 47.2847 55.4891L43.0658 47.1139Z" fill="#D9706A"/>
<path d="M57.2878 56.5653C53.6916 56.3662 51.6832 54.2834 46.8989 44.2175C54.9902 47.8024 59.4854 49.6944 63.8807 47.2049C64.0951 53.9834 60.8839 56.7645 57.2878 56.5653Z" fill="#D9706A"/>
<path d="M19.5931 56.5653C23.2301 56.3662 25.2613 54.2834 30.0999 44.2175C21.9167 47.8024 17.3704 49.6944 12.9252 47.2049C12.7084 53.9834 15.9561 56.7645 19.5931 56.5653Z" fill="#D9706A"/>
<path d="M28.2151 36.6218C28.1694 37.399 28.1923 38.2638 28.274 39.2513C-6.22627 52.7514 0.180088 24.2513 0.973779 22.1512C1.76747 20.0511 15.2001 -1.72497 33.6003 28.4753C31.9279 29.8504 30.7021 30.957 29.8446 32.0779L20.5123 28.7105L18.8739 33.2512L28.2151 36.6218Z" fill="#D9706A"/>
<path d="M48.7849 36.5993C48.8306 37.3765 48.8077 38.2413 48.726 39.2289C83.2263 52.7289 76.8199 24.2288 76.0262 22.1287C75.2325 20.0287 61.7999 -1.74743 43.3997 28.4528C45.0721 29.8279 46.2979 30.9345 47.1554 32.0554L56.4877 28.6881L58.1261 33.2288L48.7849 36.5993Z" fill="#D9706A"/>
</svg>
