<svg xmlns="http://www.w3.org/2000/svg" width="262" height="61" fill="none"><path fill="#EEE" d="M93.876 49V23.872h5.472V44.14h9.576V49H93.876Zm33.911 0c-.96 0-1.764-.3-2.412-.9-.624-.6-1.02-1.404-1.188-2.412h-.216c-.288 1.224-.924 2.16-1.908 2.808-.984.624-2.196.936-3.636.936-1.896 0-3.348-.504-4.356-1.512s-1.512-2.34-1.512-3.996c0-1.992.72-3.468 2.16-4.428 1.464-.984 3.444-1.476 5.94-1.476h2.988v-1.188c0-.912-.24-1.632-.72-2.16-.48-.552-1.284-.828-2.412-.828-1.056 0-1.896.228-2.52.684a6.765 6.765 0 0 0-1.548 1.548l-3.168-2.808c.768-1.128 1.728-2.004 2.88-2.628 1.176-.648 2.76-.972 4.752-.972 2.688 0 4.704.588 6.048 1.764 1.344 1.176 2.016 2.892 2.016 5.148v8.28h1.764V49h-2.952Zm-7.38-3.276c.888 0 1.644-.192 2.268-.576.648-.384.972-1.008.972-1.872v-2.232h-2.592c-2.088 0-3.132.708-3.132 2.124v.54c0 .696.216 1.212.648 1.548.432.312 1.044.468 1.836.468ZM135.315 49V30.1h5.328v3.204h.216c.336-.984.924-1.836 1.764-2.556s2.004-1.08 3.492-1.08c1.944 0 3.408.648 4.392 1.944 1.008 1.296 1.512 3.144 1.512 5.544V49h-5.328V37.588c0-1.224-.192-2.124-.576-2.7-.384-.6-1.068-.9-2.052-.9-.432 0-.852.06-1.26.18-.408.096-.78.264-1.116.504-.312.24-.564.54-.756.9-.192.336-.288.732-.288 1.188V49h-5.328Zm39.045 0-5.022-5.418c-.552-.6-.99-1.122-1.314-1.566a5.226 5.226 0 0 1-.702-1.314 4.192 4.192 0 0 1-.216-1.368c0-.744.162-1.386.486-1.926.324-.54.822-.96 1.494-1.26.684-.312 1.566-.468 2.646-.468.444 0 .894.024 1.35.072.468.036.876.084 1.224.144v2.376a19.89 19.89 0 0 0-.882-.108 15.25 15.25 0 0 0-1.044-.072 12.059 12.059 0 0 0-.828-.036c-.708 0-1.182.126-1.422.378s-.36.6-.36 1.044c0 .408.096.804.288 1.188.204.372.534.804.99 1.296L177.546 49h-3.186Zm-4.302.378c-.972 0-1.824-.186-2.556-.558a4.4 4.4 0 0 1-1.692-1.548 4.094 4.094 0 0 1-.612-2.196v-.252c0-.876.246-1.656.738-2.34a4.632 4.632 0 0 1 1.908-1.548l1.17 1.512c-.324.216-.6.528-.828.936-.216.396-.324.864-.324 1.404 0 .42.084.804.252 1.152.18.336.444.6.792.792.348.18.786.27 1.314.27.696 0 1.332-.186 1.908-.558.588-.372 1.056-.96 1.404-1.764.36-.804.54-1.854.54-3.15h2.52c0 1.272-.174 2.394-.522 3.366-.336.972-.81 1.794-1.422 2.466a6.132 6.132 0 0 1-2.088 1.512 6.34 6.34 0 0 1-2.502.504Zm2.322-7.47v-2.106h5.112v2.106h-5.112Zm37.642-9.396h-.108l-1.836 3.672-4.896 8.892-4.788-8.856-1.908-3.96h-.108V49h-5.148V23.872h5.796l6.156 11.772h.072l6.084-11.772h5.832V49h-5.148V32.512ZM235.406 49c-.96 0-1.764-.3-2.412-.9-.624-.6-1.02-1.404-1.188-2.412h-.216c-.288 1.224-.924 2.16-1.908 2.808-.984.624-2.196.936-3.636.936-1.896 0-3.348-.504-4.356-1.512s-1.512-2.34-1.512-3.996c0-1.992.72-3.468 2.16-4.428 1.464-.984 3.444-1.476 5.94-1.476h2.988v-1.188c0-.912-.24-1.632-.72-2.16-.48-.552-1.284-.828-2.412-.828-1.056 0-1.896.228-2.52.684a6.765 6.765 0 0 0-1.548 1.548l-3.168-2.808c.768-1.128 1.728-2.004 2.88-2.628 1.176-.648 2.76-.972 4.752-.972 2.688 0 4.704.588 6.048 1.764 1.344 1.176 2.016 2.892 2.016 5.148v8.28h1.764V49h-2.952Zm-7.38-3.276c.888 0 1.644-.192 2.268-.576.648-.384.972-1.008.972-1.872v-2.232h-2.592c-2.088 0-3.132.708-3.132 2.124v.54c0 .696.216 1.212.648 1.548.432.312 1.044.468 1.836.468ZM242.934 49V30.1h5.328v3.204h.216c.336-.984.924-1.836 1.764-2.556s2.004-1.08 3.492-1.08c1.944 0 3.408.648 4.392 1.944 1.008 1.296 1.512 3.144 1.512 5.544V49h-5.328V37.588c0-1.224-.192-2.124-.576-2.7-.384-.6-1.068-.9-2.052-.9-.432 0-.852.06-1.26.18-.408.096-.78.264-1.116.504-.312.24-.564.54-.756.9-.192.336-.288.732-.288 1.188V49h-5.328Z"/><path fill="#D9706A" d="M44.003 37.749a5.503 5.503 0 1 1-11.007 0 5.503 5.503 0 0 1 11.007 0ZM49.023 13.258 38.547 26.84 28.17 13.258c0-17.577 20.853-17.777 20.853 0ZM43.066 47.114c-3.617 1.296-5.726 1.196-9.342 0l-3.817 8.375c5.223 6.182 11.35 5.982 17.378 0l-4.22-8.375ZM57.288 56.565c-3.596-.199-5.605-2.282-10.39-12.347 8.092 3.584 12.587 5.476 16.983 2.987.214 6.778-2.997 9.56-6.593 9.36ZM19.593 56.565c3.637-.199 5.668-2.282 10.507-12.347-8.183 3.584-12.73 5.476-17.175 2.987-.217 6.778 3.031 9.56 6.668 9.36ZM28.215 36.622c-.046.777-.023 1.642.059 2.63-34.5 13.5-28.094-15-27.3-17.1.793-2.1 14.226-23.877 32.626 6.323-1.672 1.375-2.898 2.482-3.755 3.603l-9.333-3.368-1.638 4.541 9.341 3.37ZM48.785 36.6c.046.776.023 1.641-.059 2.629 34.5 13.5 28.094-15 27.3-17.1-.793-2.1-14.226-23.876-32.626 6.324 1.672 1.375 2.898 2.482 3.755 3.602l9.333-3.367 1.638 4.54-9.341 3.371Z"/></svg>